<?xml version="1.0" encoding="UTF-8"?>
<svg width="203px" height="48px" viewBox="0 0 203 48" version="1.1" xmlns="http://www.w3.org/2000/svg" xmlns:xlink="http://www.w3.org/1999/xlink">
    <!-- Generator: Sketch 64 (93537) - https://sketch.com -->
    <title>Group 50</title>
    <desc>Created with Sketch.</desc>
    <defs>
        <polygon id="path-1" points="0.4639 0.9844 19.224 0.9844 19.224 18.6034 0.4639 18.6034"></polygon>
        <polygon id="path-3" points="0.2266 0.108 4.1416 0.108 4.1416 18.5867 0.2266 18.5867"></polygon>
    </defs>
    <g id="Symbols" stroke="none" stroke-width="1" fill="none" fill-rule="evenodd">
        <g id="Blok/Footer" transform="translate(-1160.000000, -142.000000)">
            <g id="Group-51" transform="translate(1160.000000, 141.000000)">
                <g id="Group-50" transform="translate(0.000000, 0.892200)">
                    <path d="M120.2232,43.44 C122.0162,43.44 122.8832,41.419 122.8832,39.868 C122.8832,38.607 122.0932,38.211 121.1192,38.211 C119.4022,38.211 118.4452,39.868 118.4452,41.494 C118.4452,42.68 119.0682,43.44 120.2232,43.44 M119.1442,46.753 C120.5272,46.753 121.7122,46.161 122.0462,44.322 C122.1682,43.744 122.2752,43.455 122.2752,43.455 L122.2442,43.455 C121.6822,44.246 120.9222,44.717 119.8732,44.717 C117.9892,44.717 116.9392,43.425 116.9392,41.601 C116.9392,39.458 118.3842,36.935 120.9982,36.935 C122.3812,36.935 123.2022,37.573 123.3692,38.227 L123.3992,38.227 C123.3992,38.227 123.3842,38.12 123.4302,37.908 C123.5212,37.421 123.8262,37.117 124.4492,37.117 L126.1052,37.117 L125.8922,38.257 L125.0412,38.257 C124.8442,38.257 124.6922,38.363 124.6462,38.561 L123.4912,44.565 C122.9902,47.103 121.0592,48 119.2342,48 C117.8062,48 116.8792,47.544 116.4692,47.316 L117.0922,46.252 C117.0922,46.252 117.9282,46.753 119.1442,46.753" id="Fill-2" fill="#FEFEFE"></path>
                    <path d="M130.0689,43.7137 C131.6649,43.7137 133.2919,42.2697 133.2919,40.3697 C133.2919,39.0927 132.4099,38.2117 131.1329,38.2117 C129.5219,38.2117 127.9109,39.6557 127.9109,41.5397 C127.9109,42.8317 128.7919,43.7137 130.0689,43.7137 M131.2549,36.9347 C133.3369,36.9347 134.7959,38.3027 134.7959,40.2937 C134.7959,42.9687 132.4399,44.9907 129.9479,44.9907 C127.8649,44.9907 126.4059,43.6077 126.4059,41.6007 C126.4059,38.9557 128.7469,36.9347 131.2549,36.9347" id="Fill-4" fill="#FEFEFE"></path>
                    <path d="M141.8311,40.1568 C141.8311,40.1568 141.8771,39.8988 141.8771,39.6558 C141.8771,38.6218 141.2691,38.1048 140.3871,38.1048 C139.2631,38.1048 138.1991,38.8498 137.7271,40.1568 L141.8311,40.1568 Z M140.4331,36.9348 C142.4091,36.9348 143.3511,38.1198 143.3511,39.7768 C143.3511,40.3998 143.1081,41.0988 143.1081,41.0988 L137.5151,41.0988 C137.5151,41.0988 137.4541,41.3578 137.4541,41.6468 C137.4541,42.8318 138.2291,43.7138 139.6421,43.7138 C140.9641,43.7138 142.1041,42.8318 142.1041,42.8318 L142.5151,43.9878 C142.5151,43.9878 141.2231,44.9898 139.5661,44.9898 C137.3171,44.9898 135.9491,43.6228 135.9491,41.7078 C135.9491,39.1538 137.8491,36.9348 140.4331,36.9348 L140.4331,36.9348 Z" id="Fill-6" fill="#FEFEFE"></path>
                    <path d="M147.6343,43.7137 C149.2463,43.7137 150.4463,41.9357 150.4463,40.1717 C150.4463,39.1087 149.9293,38.2267 148.7293,38.2267 C147.4063,38.2267 145.9013,39.5337 145.9013,41.7377 C145.9013,42.9687 146.5553,43.7137 147.6343,43.7137 M148.6373,36.9347 C149.5953,36.9347 150.5223,37.3297 150.8723,38.2567 L150.9023,38.2567 C150.9023,38.2567 150.9183,37.9677 150.9783,37.6947 L151.4493,35.2167 L150.1723,35.2167 L150.4013,34.0767 L153.1523,34.0767 L151.5103,42.5587 C151.4803,42.7257 151.4493,42.8927 151.4493,43.0297 C151.4493,43.5767 151.7683,43.6987 152.1483,43.6987 C152.3613,43.6987 152.4983,43.6677 152.4983,43.6677 L152.2853,44.8077 C152.2853,44.8077 151.9513,44.8387 151.6473,44.8387 C150.6753,44.8387 149.9903,44.4887 150.0213,43.4547 L149.9903,43.4547 C149.4733,44.2757 148.4403,44.9907 147.2843,44.9907 C145.4303,44.9907 144.3973,43.7597 144.3973,41.8437 C144.3973,38.9257 146.4183,36.9347 148.6373,36.9347" id="Fill-8" fill="#FEFEFE"></path>
                    <path d="M161.7202,43.7137 C163.0282,43.7137 164.5482,42.4067 164.5482,40.2027 C164.5482,38.9717 163.8942,38.2267 162.8152,38.2267 C161.2192,38.2267 159.9882,39.9287 159.9882,41.7677 C159.9882,42.8317 160.5052,43.7137 161.7202,43.7137 L161.7202,43.7137 Z M159.7602,35.2167 L158.4682,35.2167 L158.6962,34.0767 L161.4472,34.0767 L160.7782,37.5577 C160.7022,37.9227 160.5812,38.2567 160.5812,38.2567 L160.6112,38.2567 C161.1582,37.4817 162.1612,36.9347 163.1792,36.9347 C165.0042,36.9347 166.0522,38.1657 166.0522,40.0967 C166.0522,42.9997 163.9862,44.9907 161.8572,44.9907 C160.8082,44.9907 159.8972,44.5187 159.5162,43.5917 L159.4862,43.5917 C159.4862,43.5917 159.4712,43.8807 159.4102,44.2147 L159.2882,44.8077 L157.9062,44.8077 L159.7602,35.2167 Z" id="Fill-10" fill="#FEFEFE"></path>
                    <path d="M173.1021,40.1568 C173.1021,40.1568 173.1481,39.8988 173.1481,39.6558 C173.1481,38.6218 172.5401,38.1048 171.6591,38.1048 C170.5341,38.1048 169.4701,38.8498 168.9981,40.1568 L173.1021,40.1568 Z M171.7041,36.9348 C173.6801,36.9348 174.6231,38.1198 174.6231,39.7768 C174.6231,40.3998 174.3791,41.0988 174.3791,41.0988 L168.7861,41.0988 C168.7861,41.0988 168.7251,41.3578 168.7251,41.6468 C168.7251,42.8318 169.5001,43.7138 170.9141,43.7138 C172.2361,43.7138 173.3761,42.8318 173.3761,42.8318 L173.7871,43.9878 C173.7871,43.9878 172.4951,44.9898 170.8371,44.9898 C168.5881,44.9898 167.2201,43.6228 167.2201,41.7078 C167.2201,39.1538 169.1211,36.9348 171.7041,36.9348 L171.7041,36.9348 Z" id="Fill-12" fill="#FEFEFE"></path>
                    <path d="M175.2271,43.8353 L180.2581,38.8493 C180.5621,38.5313 180.8971,38.2573 180.8971,38.2573 L180.8971,38.2263 C180.8971,38.2263 180.5931,38.2573 180.1671,38.2573 L177.7661,38.2573 L177.5381,39.4883 L176.2461,39.4883 L176.7171,37.1173 L182.9951,37.1173 L182.7971,38.0893 L177.7811,43.0753 C177.4621,43.3943 177.1271,43.6833 177.1271,43.6683 L177.1271,43.6983 C177.1271,43.6983 177.4461,43.6683 177.8731,43.6683 L180.5931,43.6683 L180.8361,42.4373 L182.1131,42.4373 L181.6571,44.8083 L175.0451,44.8083 L175.2271,43.8353 Z" id="Fill-14" fill="#FEFEFE"></path>
                    <path d="M186.1084,34.077 L187.6584,34.077 L187.3554,35.582 L185.8044,35.582 L186.1084,34.077 Z M184.4514,42.695 L185.3334,38.257 L184.0414,38.257 L184.2694,37.117 L187.0204,37.117 L185.9564,42.558 C185.9264,42.726 185.8964,42.893 185.8964,43.03 C185.8964,43.577 186.2144,43.698 186.5944,43.698 C186.8074,43.698 186.9444,43.668 186.9444,43.668 L186.7324,44.808 C186.7324,44.808 186.3824,44.838 186.1234,44.838 C185.3634,44.838 184.3754,44.717 184.3754,43.364 C184.3754,43.181 184.4064,42.954 184.4514,42.695 L184.4514,42.695 Z" id="Fill-16" fill="#FEFEFE"></path>
                    <path d="M191.8062,43.44 C193.6002,43.44 194.4662,41.419 194.4662,39.868 C194.4662,38.607 193.6762,38.211 192.7032,38.211 C190.9852,38.211 190.0282,39.868 190.0282,41.494 C190.0282,42.68 190.6512,43.44 191.8062,43.44 M190.7272,46.753 C192.1102,46.753 193.2962,46.161 193.6302,44.322 C193.7512,43.744 193.8582,43.455 193.8582,43.455 L193.8272,43.455 C193.2652,44.246 192.5052,44.717 191.4562,44.717 C189.5722,44.717 188.5222,43.425 188.5222,41.601 C188.5222,39.458 189.9672,36.935 192.5812,36.935 C193.9642,36.935 194.7852,37.573 194.9522,38.227 L194.9822,38.227 C194.9822,38.227 194.9682,38.12 195.0132,37.908 C195.1042,37.421 195.4092,37.117 196.0322,37.117 L197.6882,37.117 L197.4752,38.257 L196.6242,38.257 C196.4272,38.257 196.2752,38.363 196.2292,38.561 L195.0742,44.565 C194.5732,47.103 192.6422,48 190.8182,48 C189.3892,48 188.4622,47.544 188.0522,47.316 L188.6752,46.252 C188.6752,46.252 189.5112,46.753 190.7272,46.753" id="Fill-18" fill="#FEFEFE"></path>
                    <path d="M199.8897,34.077 L201.4257,34.077 L199.7987,41.859 L198.4767,41.859 L199.8897,34.077 Z M198.1117,43.318 L199.6317,43.318 L199.3427,44.808 L197.8067,44.808 L198.1117,43.318 Z" id="Fill-20" fill="#FEFEFE"></path>
                    <path d="M49.1089,21.3399 L47.4459,16.3519 C47.1729,15.4839 47.1239,14.8129 47.1239,14.8129 L47.0489,14.8129 C47.0489,14.8129 46.9749,15.4839 46.7269,16.3519 L45.0399,21.3399 L49.1089,21.3399 Z M38.3389,27.1719 L39.9519,27.1719 L45.2379,11.9849 L48.9359,11.9849 L54.2209,27.1719 L55.8339,27.1719 L55.8339,29.6039 L49.2089,29.6039 L49.2089,27.1719 L50.9449,27.1719 L49.8539,23.8709 L44.2949,23.8709 L43.2029,27.1719 L44.9399,27.1719 L44.9399,29.6039 L38.3389,29.6039 L38.3389,27.1719 Z" id="Fill-22" fill="#FEFEFE"></path>
                    <path d="M57.1777,27.2459 L59.0137,27.2459 L59.0137,19.8509 C59.0137,19.5039 58.8157,19.3049 58.4687,19.3049 L57.0537,19.3049 L57.0537,16.9479 L60.3537,16.9479 C61.4707,16.9479 62.0417,17.4189 62.0417,18.4859 L62.0417,19.2309 C62.0417,19.7019 61.9917,20.0249 61.9917,20.0249 L62.0417,20.0249 C62.6127,18.2129 64.1257,16.7739 66.0617,16.7739 C66.3597,16.7739 66.6327,16.8229 66.6327,16.8229 L66.6327,19.9249 C66.6327,19.9249 66.3097,19.8759 65.8637,19.8759 C63.3067,19.8759 62.1657,22.1089 62.1657,24.4919 L62.1657,27.2459 L63.9767,27.2459 L63.9767,29.6039 L57.1777,29.6039 L57.1777,27.2459 Z" id="Fill-24" fill="#FEFEFE"></path>
                    <path d="M68.2227,27.2459 L70.0587,27.2459 L70.0587,19.8509 C70.0587,19.5039 69.8607,19.3049 69.5137,19.3049 L68.0987,19.3049 L68.0987,16.9479 L71.4237,16.9479 C72.5407,16.9479 73.0617,17.4689 73.0617,18.3619 L73.0617,18.9329 C73.0617,19.2059 73.0127,19.4789 73.0127,19.4789 L73.0617,19.4789 C73.2107,19.0819 74.5507,16.6499 77.7267,16.6499 C80.4317,16.6499 81.9707,18.1139 81.9707,21.4639 L81.9707,27.2459 L83.8067,27.2459 L83.8067,29.6039 L78.8437,29.6039 L78.8437,22.1089 C78.8437,20.5709 78.4217,19.5279 76.8337,19.5279 C74.5507,19.5279 73.2107,21.7119 73.2107,23.9209 L73.2107,27.2459 L75.0227,27.2459 L75.0227,29.6039 L68.2227,29.6039 L68.2227,27.2459 Z" id="Fill-26" fill="#FEFEFE"></path>
                    <path d="M85.1001,27.2459 L86.9361,27.2459 L86.9361,14.3419 L84.9761,14.3419 L84.9761,11.9849 L90.0881,11.9849 L90.0881,18.1389 C90.0881,18.7589 90.0141,19.2059 90.0141,19.2059 L90.0631,19.2059 C90.6831,17.9899 92.2471,16.6499 94.4311,16.6499 C97.2351,16.6499 98.8481,18.1139 98.8481,21.4639 L98.8481,27.2459 L100.6841,27.2459 L100.6841,29.6039 L95.6971,29.6039 L95.6971,22.1089 C95.6971,20.5709 95.2991,19.5279 93.7111,19.5279 C91.4781,19.5279 90.0881,21.4639 90.0881,23.7969 L90.0881,27.2459 L91.9001,27.2459 L91.9001,29.6039 L85.1001,29.6039 L85.1001,27.2459 Z" id="Fill-28" fill="#FEFEFE"></path>
                    <path d="M110.9121,21.8609 C110.8621,20.1239 109.7951,19.0819 108.4551,19.0819 C106.8421,19.0819 105.7011,20.1979 105.4031,21.8609 L110.9121,21.8609 Z M108.5301,16.6499 C112.1781,16.6499 114.1631,19.3049 114.1631,22.6549 C114.1631,23.0279 114.0881,23.7219 114.0881,23.7219 L105.3291,23.7219 C105.5271,26.0549 107.2141,27.2459 109.1251,27.2459 C111.1851,27.2459 112.7981,25.9059 112.7981,25.9059 L114.0141,28.1389 C114.0141,28.1389 112.0791,29.9009 108.9021,29.9009 C104.7081,29.9009 102.1021,26.8739 102.1021,23.2759 C102.1021,19.3799 104.7331,16.6499 108.5301,16.6499 L108.5301,16.6499 Z" id="Fill-30" fill="#FEFEFE"></path>
                    <path d="M116.2246,27.2459 L118.0606,27.2459 L118.0606,19.8259 C118.0606,19.4789 117.8626,19.3049 117.5156,19.3049 L116.1006,19.3049 L116.1006,16.9479 L119.4016,16.9479 C120.5176,16.9479 121.0636,17.4689 121.0636,18.3619 L121.0636,18.9329 C121.0636,19.2059 121.0146,19.4789 121.0146,19.4789 L121.0636,19.4789 C121.7086,18.1879 123.2976,16.6499 125.3816,16.6499 C127.1436,16.6499 128.4096,17.4689 128.9056,19.4039 L128.9546,19.4039 C129.6496,17.9149 131.3376,16.6499 133.3476,16.6499 C135.9036,16.6499 137.4176,18.1389 137.4176,21.4639 L137.4176,27.2459 L139.2536,27.2459 L139.2536,29.6039 L134.2656,29.6039 L134.2656,22.0589 C134.2656,20.6199 133.9926,19.5279 132.5286,19.5279 C130.3696,19.5279 129.3026,21.6869 129.3026,24.0199 L129.3026,27.2459 L131.1396,27.2459 L131.1396,29.6039 L126.1756,29.6039 L126.1756,22.0589 C126.1756,20.6949 125.9526,19.5279 124.4636,19.5279 C122.2296,19.5279 121.2126,21.8859 121.2126,24.1689 L121.2126,27.2459 L123.0246,27.2459 L123.0246,29.6039 L116.2246,29.6039 L116.2246,27.2459 Z" id="Fill-32" fill="#FEFEFE"></path>
                    <path d="M157.1026,21.3399 L155.4396,16.3519 C155.1666,15.4839 155.1176,14.8129 155.1176,14.8129 L155.0426,14.8129 C155.0426,14.8129 154.9686,15.4839 154.7206,16.3519 L153.0326,21.3399 L157.1026,21.3399 Z M146.3326,27.1719 L147.9456,27.1719 L153.2316,11.9849 L156.9286,11.9849 L162.2146,27.1719 L163.8276,27.1719 L163.8276,29.6039 L157.2016,29.6039 L157.2016,27.1719 L158.9386,27.1719 L157.8476,23.8709 L152.2886,23.8709 L151.1966,27.1719 L152.9336,27.1719 L152.9336,29.6039 L146.3326,29.6039 L146.3326,27.1719 Z" id="Fill-34" fill="#FEFEFE"></path>
                    <path d="M175.1968,21.3399 L173.5338,16.3519 C173.2608,15.4839 173.2118,14.8129 173.2118,14.8129 L173.1368,14.8129 C173.1368,14.8129 173.0628,15.4839 172.8148,16.3519 L171.1268,21.3399 L175.1968,21.3399 Z M164.4268,27.1719 L166.0398,27.1719 L171.3258,11.9849 L175.0228,11.9849 L180.3088,27.1719 L181.9218,27.1719 L181.9218,29.6039 L175.2958,29.6039 L175.2958,27.1719 L177.0328,27.1719 L175.9408,23.8709 L170.3828,23.8709 L169.2908,27.1719 L171.0278,27.1719 L171.0278,29.6039 L164.4268,29.6039 L164.4268,27.1719 Z" id="Fill-36" fill="#FEFEFE"></path>
                    <g id="Group-40" transform="translate(183.000000, 11.000000)">
                        <mask id="mask-2" fill="white">
                            <use xlink:href="#path-1"></use>
                        </mask>
                        <g id="Clip-39"></g>
                        <path d="M0.4639,16.1714 L2.5729,16.1714 L2.5729,3.4414 L0.4639,3.4414 L0.4639,0.9844 L5.8239,0.9844 L13.2439,12.3254 C13.5909,12.8954 13.8889,13.8144 13.8889,13.8144 L13.9639,13.8144 C13.9639,13.8144 13.8389,12.7964 13.8639,12.1514 L13.8639,3.4414 L11.6809,3.4414 L11.6809,0.9844 L19.2249,0.9844 L19.2249,3.4414 L17.1149,3.4414 L17.1149,18.6034 L13.8639,18.6034 L6.4439,7.3124 C6.0969,6.7164 5.7989,5.8234 5.7989,5.8234 L5.6999,5.8234 C5.6999,5.8234 5.8489,6.8164 5.8239,7.4614 L5.8239,16.1714 L8.0079,16.1714 L8.0079,18.6034 L0.4639,18.6034 L0.4639,16.1714 Z" id="Fill-38" fill="#FEFEFE" mask="url(#mask-2)"></path>
                    </g>
                    <path d="M18.1773,3.4222 L18.1773,5.1942 C24.1143,6.5742 28.5533,11.9042 28.5533,18.2562 C28.5533,25.6522 22.5363,31.6692 15.1403,31.6692 C7.7443,31.6692 1.7273,25.6522 1.7273,18.2562 C1.7273,11.8732 6.2093,6.5222 12.1903,5.1732 L12.1903,3.4062 C5.2493,4.7832 0.0003,10.9172 0.0003,18.2562 C0.0003,26.6042 6.7913,33.3962 15.1403,33.3962 C23.4883,33.3962 30.2803,26.6042 30.2803,18.2562 C30.2803,10.9472 25.0753,4.8322 18.1773,3.4222" id="Fill-41" fill="#FEFEFE"></path>
                    <path d="M23.0239,18.2559 C23.0239,19.8579 22.5429,21.3479 21.7179,22.5939 L23.2149,23.4579 C24.1849,21.9569 24.7509,20.1719 24.7509,18.2559 C24.7509,14.0179 21.9919,10.4139 18.1769,9.1399 L18.1769,10.9819 C21.0209,12.1729 23.0239,14.9849 23.0239,18.2559" id="Fill-43" fill="#FEFEFE"></path>
                    <path d="M7.2564,18.2559 C7.2564,14.9519 9.3004,12.1179 12.1904,10.9469 L12.1904,9.1099 C8.3294,10.3579 5.5294,13.9849 5.5294,18.2559 C5.5294,22.1369 7.8454,25.4819 11.1654,26.9969 C11.4214,29.0109 13.2024,29.9409 14.7254,29.9379072 L16.9884,29.9329 C17.0954,29.9329 17.1824,29.8459 17.1824,29.7389 L17.1804,28.6999 L19.2994,28.6949 C19.7284,28.6949 20.0754,28.3459 20.0744022,27.9169 C20.0734,27.4879 19.7254,27.1409 19.2964,27.1419 L17.1774,27.1459 L17.1734,25.3799 L19.2924,25.3749 C19.7214,25.3739 20.0684,25.0259 20.0684,24.5969 C20.0674,24.1679 19.7184,23.8209 19.2894,23.8219 L17.1704,23.8259 L17.1684,22.7869 C17.1684,22.6799 17.0804,22.5929 16.9734,22.5929 L14.7104,22.5979 C13.3074,22.6009 11.8694,23.5509 11.3424,25.1539 C8.9104,23.8109 7.2564,21.2249 7.2564,18.2559" id="Fill-45" fill="#FEFEFE"></path>
                    <g id="Group-49" transform="translate(13.000000, 0.000000)">
                        <mask id="mask-4" fill="white">
                            <use xlink:href="#path-3"></use>
                        </mask>
                        <g id="Clip-48"></g>
                        <path d="M2.1836,18.5867 C3.2636,18.5867 4.1416,17.7087 4.1416,16.6297 L4.1416,10.6307 L4.1416,8.8567 L4.1416,4.9927 L4.1416,3.2527 L4.1416,2.0647 C4.1416,0.9857 3.2636,0.1077 2.1836,0.1077 C1.1046,0.1077 0.2266,0.9857 0.2266,2.0647 L0.2266,3.2407 L0.2266,4.9817 L0.2266,8.8367 L0.2266,10.6077 L0.2266,16.6297 C0.2266,17.7087 1.1046,18.5867 2.1836,18.5867" id="Fill-47" fill="#FEFEFE" mask="url(#mask-4)"></path>
                    </g>
                </g>
            </g>
        </g>
    </g>
</svg>