<?xml version="1.0" encoding="UTF-8"?>
<svg width="12px" height="10px" viewBox="0 0 12 10" version="1.1" xmlns="http://www.w3.org/2000/svg" xmlns:xlink="http://www.w3.org/1999/xlink">
    <!-- Generator: Sketch 64 (93537) - https://sketch.com -->
    <title>Shape Copy 4</title>
    <desc>Created with Sketch.</desc>
    <g id="Symbols" stroke="none" stroke-width="1" fill="none" fill-rule="evenodd">
        <g id="Blok/Footer" transform="translate(-694.000000, -121.000000)" fill="#FFFFFF" fill-rule="nonzero">
            <path d="M705.278741,125.181565 C705.22964,125.173821 705.179949,125.17025 705.130231,125.170875 L696.664466,125.170875 L696.849064,125.087446 C697.029503,125.00446 697.193655,124.891518 697.334169,124.753729 L699.708182,122.446909 C700.020845,122.156888 700.07338,121.690335 699.832678,121.34147 C699.552535,120.969715 699.015297,120.888997 698.632686,121.161211 C698.601776,121.183215 698.572396,121.207201 698.544787,121.233012 L694.251816,125.404477 C693.916321,125.730112 693.916026,126.25835 694.251146,126.58435 C694.25136,126.584559 694.251602,126.584793 694.251816,126.585002 L698.544787,130.756467 C698.880551,131.081815 699.424175,131.081085 699.759027,130.754825 C699.785375,130.729144 699.809979,130.701821 699.832678,130.673038 C700.07338,130.324173 700.020845,129.857621 699.708182,129.5676 L697.338462,127.256608 C697.212491,127.134071 697.067656,127.031323 696.909165,126.952091 L696.651587,126.839461 L705.082982,126.839461 C705.521589,126.855287 705.9064,126.557575 705.988798,126.138655 C706.064704,125.683835 705.746809,125.255348 705.278741,125.181565 Z" id="Shape-Copy-4" transform="translate(700.000000, 126.000000) scale(-1, 1) translate(-700.000000, -126.000000) "></path>
        </g>
    </g>
</svg>