<?xml version="1.0" encoding="UTF-8"?>
<svg width="145px" height="144px" viewBox="0 0 145 144" version="1.1" xmlns="http://www.w3.org/2000/svg" xmlns:xlink="http://www.w3.org/1999/xlink">
    <!-- Generator: Sketch 64 (93537) - https://sketch.com -->
    <title>Group 14</title>
    <desc>Created with Sketch.</desc>
    <defs>
        <polygon id="path-1" points="0.4646 0.979185766 80.1885269 0.979185766 80.1885269 144 0.4646 144"></polygon>
    </defs>
    <g id="Webpages" stroke="none" stroke-width="1" fill="none" fill-rule="evenodd">
        <g id="Eigenaar" transform="translate(-280.000000, -618.000000)">
            <g id="Group-14" transform="translate(280.000000, 617.000000)">
                <path d="M28.0031,73.5425 C26.3401,73.5425 24.6671,73.6835 22.9281,73.9795 C10.3571,76.1185 6.0721,85.0805 5.8961,85.4605 C5.8411,85.5715 3.0811,91.0505 3.0031,96.8075 C2.7201,117.6205 21.0141,120.0845 26.6271,120.3435 C36.9421,120.8205 41.5131,122.4715 41.7031,122.5415 C41.8651,122.6025 56.4181,128.0695 72.0681,132.8205 L71.7481,132.0465 C71.6041,131.6575 68.7311,123.7255 66.8801,110.4085 C66.3361,106.4955 65.0451,89.2175 64.7301,84.9495 L56.5261,81.5815 L53.0861,80.2895 C42.1331,76.1645 35.1741,73.5425 28.0031,73.5425 L28.0031,73.5425 Z M77.2481,137.4865 L74.2371,136.6005 C57.3831,131.6375 40.8191,125.4145 40.6541,125.3525 C40.6241,125.3415 36.2591,123.7925 26.4881,123.3405 C1.5941,122.1905 -0.0779,102.7095 0.0031,96.7665 C0.0911,90.2915 3.0711,84.3975 3.1981,84.1505 C3.3681,83.7725 8.2291,73.4375 22.4251,71.0215 C32.4581,69.3135 40.1611,72.2155 54.1431,77.4815 L57.6221,78.7895 L67.5861,82.8785 L67.6531,83.8045 C67.6701,84.0235 69.2561,105.7135 69.8521,109.9955 C71.6541,122.9645 74.5141,130.8785 74.5431,130.9575 L77.2481,137.4865 Z" id="Fill-1" fill="#FFFFFF"></path>
                <path d="M46.382,126.583 C46.299,122.29 45.852,84.48 55.336,78.901 L56.857,81.487 C50.852,85.019 49.085,110.987 49.381,126.525 L46.382,126.583 Z" id="Fill-3" fill="#FFFFFF"></path>
                <path d="M57.361,130.3286 C55.353,112.0096 59.606,82.8416 59.788,81.6086 L62.756,82.0476 C62.712,82.3456 58.378,112.0686 60.343,130.0016 L57.361,130.3286 Z" id="Fill-5" fill="#FFFFFF"></path>
                <path d="M82.2643,23.5081 L79.2643,23.4801 C79.2913,20.6491 79.5263,20.2371 79.6823,19.9651 C79.9163,19.5551 80.5983,18.3611 87.5223,16.3431 L85.9743,11.8431 L88.8113,10.8671 L91.3953,18.3821 L89.8513,18.8031 C86.8823,19.6131 83.3443,20.8241 82.3553,21.4691 C82.3073,21.9371 82.2703,22.8171 82.2643,23.5081 L82.2643,23.5081 Z" id="Fill-7" fill="#FFFFFF"></path>
                <path d="M104.8956,32.7119 L103.4126,30.1049 C104.9586,29.2249 106.3466,28.3259 107.1296,27.7769 L108.8506,30.2339 C108.0116,30.8219 106.5326,31.7809 104.8956,32.7119" id="Fill-9" fill="#FFFFFF"></path>
                <g id="Group-13" transform="translate(64.000000, 0.021000)">
                    <mask id="mask-2" fill="white">
                        <use xlink:href="#path-1"></use>
                    </mask>
                    <g id="Clip-12"></g>
                    <path d="M11.7266,133.8801 C14.7876,134.7321 24.4086,137.3901 28.7846,138.3691 C44.0166,141.7751 57.4606,141.0701 62.5356,140.6081 C63.1936,140.5481 63.7866,140.2701 64.2476,139.8031 C66.4576,137.5661 71.9996,130.7841 75.7206,116.1631 C79.9496,99.5491 74.0596,73.0191 70.8946,58.7661 C70.4276,56.6631 70.0176,54.8161 69.7036,53.2931 C67.7206,43.6571 60.6226,33.7961 58.4946,31.0031 C57.7246,29.9931 57.3166,28.7861 57.3166,27.5121 L57.3166,22.4151 C57.3166,21.6211 56.9796,20.8681 56.3906,20.3481 C47.7886,12.7361 36.5516,4.4451 30.8136,4.0041 C22.9386,3.4081 12.3776,13.7021 11.2046,15.6361 C11.2896,16.6321 13.5256,20.4781 16.3056,21.5911 L16.3996,21.6321 L18.2566,22.5271 L18.2836,25.7761 C18.3006,26.2301 18.3216,26.5361 18.3416,26.7351 C20.5616,28.2381 30.6926,33.2921 33.1056,32.8091 C34.6336,32.5031 36.8146,31.5611 39.4126,30.0831 L41.9106,28.6281 L43.3306,33.4211 C43.4176,33.8211 45.4816,43.2951 46.1886,50.0091 C46.6486,54.3841 45.5256,74.6791 44.3886,78.8061 C43.4266,82.2951 42.6996,92.4901 45.2456,100.6641 C47.4876,102.0481 49.6646,103.5421 51.6376,105.1271 L49.8446,107.5301 L43.2066,102.9421 C33.4276,97.0181 22.2786,93.1111 22.1406,93.0631 L15.9616,90.5961 L3.8496,86.1181 L5.9876,111.5711 C5.9986,111.6321 8.0576,125.8311 11.7266,133.8801 L11.7266,133.8801 Z M53.2976,144.0001 C46.6396,144.0001 37.7296,143.4441 28.1306,141.2971 C25.9086,140.8001 22.1726,139.8411 17.0276,138.4481 C15.5956,138.0591 14.4236,137.7421 13.4646,137.4781 L13.4686,137.4871 L9.9606,136.5011 L9.9806,136.4281 C9.0976,136.0881 9.0356,135.8781 8.9176,135.4771 L8.6686,134.6291 L8.7426,134.5541 C5.0576,126.0571 3.0936,112.5091 3.0076,111.9081 L0.4646,81.6681 L17.0386,87.7961 L23.1886,90.2531 C23.6586,90.4141 32.5786,93.5381 41.5846,98.5271 C39.8016,90.3681 40.5416,81.4741 41.4966,78.0091 C42.5136,74.3171 43.6226,54.2951 43.2046,50.3231 C42.5416,44.0251 40.5806,34.8951 40.4116,34.1151 L40.1176,33.1251 C37.5426,34.5321 35.3876,35.4121 33.6936,35.7511 C29.4956,36.6021 16.6706,29.6551 15.7846,28.4731 C15.4836,28.0721 15.3486,27.6181 15.2846,25.8431 L15.2726,24.4191 L15.1406,24.3551 C11.2486,22.7641 7.6876,17.2701 8.2926,14.8531 C8.8326,12.6891 21.1676,0.2471 31.0436,1.0131 C38.9736,1.6231 52.8016,13.1661 58.3786,18.1001 C59.6106,19.1901 60.3166,20.7631 60.3166,22.4151 L60.3166,27.5121 C60.3166,28.1231 60.5116,28.7021 60.8796,29.1851 C63.7326,32.9281 70.5886,42.7111 72.6426,52.6881 C72.9536,54.1991 73.3596,56.0301 73.8236,58.1161 C77.0426,72.6131 83.0336,99.5961 78.6276,116.9041 C74.7256,132.2361 68.7636,139.5001 66.3816,141.9121 C65.4296,142.8751 64.1606,143.4731 62.8066,143.5961 C60.7926,143.7791 57.4906,144.0001 53.2976,144.0001 L53.2976,144.0001 Z" id="Fill-11" fill="#FFFFFF" mask="url(#mask-2)"></path>
                </g>
            </g>
        </g>
    </g>
</svg>