<?xml version="1.0" encoding="UTF-8"?>
<svg width="210px" height="40px" viewBox="0 0 210 40" version="1.1" xmlns="http://www.w3.org/2000/svg" xmlns:xlink="http://www.w3.org/1999/xlink">
    <!-- Generator: Sketch 64 (93537) - https://sketch.com -->
    <title>Group 6</title>
    <desc>Created with Sketch.</desc>
    <g id="Webpages" stroke="none" stroke-width="1" fill="none" fill-rule="evenodd">
        <g id="Eigenaar" transform="translate(-159.000000, -1387.000000)">
            <g id="Group-6" transform="translate(159.000000, 1379.000000)">
                <rect id="Rectangle-2" fill="#01B7B7" x="0" y="8" width="210" height="40" rx="20"></rect>
                <text id="Bekijk-de-website" font-family="Helvetica" font-size="16" font-weight="normal" line-spacing="57" fill="#FFFFFF">
                    <tspan x="34.3828125" y="15">Bekijk de website</tspan>
                </text>
                <g id="back" transform="translate(183.500000, 28.500000) scale(-1, 1) translate(-183.500000, -28.500000) translate(171.000000, 18.000000)" fill="#FFFFFF" fill-rule="nonzero">
                    <path d="M23.4576451,8.79430909 C23.3555246,8.77810909 23.2521763,8.77063636 23.1487723,8.77194545 L5.54157366,8.77194545 L5.92550223,8.5974 C6.30078125,8.42378182 6.6421875,8.18749091 6.9344308,7.89921818 L11.8719308,3.07303636 C12.5222098,2.46627273 12.6314732,1.49018182 12.1308594,0.760309091 C11.5482143,-0.0174545455 10.4308594,-0.186327273 9.63510045,0.383181818 C9.57081473,0.429218182 9.50970982,0.4794 9.45228795,0.5334 L0.523716518,9.26067273 C-0.174051339,9.94194545 -0.174665179,11.0470909 0.522321429,11.7291273 C0.522767857,11.7295636 0.523270089,11.7300545 0.523716518,11.7304909 L9.45228795,20.4577636 C10.1506138,21.1384364 11.28125,21.1369091 11.9776786,20.4543273 C12.0324777,20.4006 12.0836496,20.3434364 12.1308594,20.2832182 C12.6314732,19.5533455 12.5222098,18.5772545 11.8719308,17.9704909 L6.94335938,13.1355818 C6.68136161,12.8792182 6.38013393,12.6642545 6.05050223,12.4984909 L5.51478795,12.2628545 L23.0505022,12.2628545 C23.9627232,12.2959636 24.763058,11.6731091 24.9344308,10.7966727 C25.0922991,9.84512727 24.4311384,8.94867273 23.4576451,8.79430909 Z" id="Shape"></path>
                </g>
            </g>
        </g>
    </g>
</svg>