<?xml version="1.0" encoding="UTF-8"?>
<svg width="194px" height="106px" viewBox="0 0 194 106" version="1.1" xmlns="http://www.w3.org/2000/svg" xmlns:xlink="http://www.w3.org/1999/xlink">
    <!-- Generator: Sketch 64 (93537) - https://sketch.com -->
    <title>Group 19</title>
    <desc>Created with Sketch.</desc>
    <g id="Webpages" stroke="none" stroke-width="1" fill="none" fill-rule="evenodd">
        <g id="Eigenaar" transform="translate(-1007.000000, -650.000000)">
            <g id="Group-19" transform="translate(1008.000000, 651.000000)">
                <polyline id="Stroke-1" stroke="#FFFFFF" stroke-width="3" points="70.3899 62.7231 84.6799 47.7431 122.5899 87.7831 188.6329 4.1761"></polyline>
                <polygon id="Fill-3" fill="#FFFFFF" points="172.8458 4.3731 173.3018 7.3401 187.9218 5.0811 189.1068 19.8261 192.0998 19.5821 190.6528 1.6251"></polygon>
                <g id="Group-18" transform="translate(0.000000, 0.283000)" stroke="#FFFFFF" stroke-width="3">
                    <path d="M70.3899,33.03 L70.3899,35.75 C68.0199,38.73 58.0699,41.12 45.1199,41.94 L45.0499,41.94 L45.0099,41.94 C42.0099,42.11 38.8399,42.22 35.5799,42.22 C32.3199,42.22 29.1499,42.11 26.1499,41.94 L26.1099,41.94 L26.0399,41.94 C12.5499,41.1 2.3299,38.54 0.4999,35.4 L0.4999,33.38 C1.8399,31.08 7.6499,29.1 15.9299,27.88 C18.8599,28.9 22.1499,29.87 25.7009,30.77 L25.7699,30.78 C25.7899,30.79 25.7899,30.79 25.8099,30.79 C28.7199,31.51 31.8199,32.2 35.0299,32.8 C38.2299,33.4 41.3699,33.88 44.3499,34.26 C44.3599,34.26 44.3599,34.26 44.3799,34.27 L44.4509,34.28 C57.1399,35.84 67.2599,35.35 70.3099,32.95 C70.3499,32.98 70.3699,33 70.3899,33.03 Z" id="Stroke-4"></path>
                    <path d="M70.3899,80.9699 L70.3899,96.0399 C67.4699,99.7099 52.9999,102.4999 35.5799,102.4999 C34.4399,102.4999 33.2999,102.4899 32.1899,102.4699 C15.7499,102.1199 2.6099,99.2899 0.4999,95.6899 L0.4999,80.6199 C2.3299,83.7599 12.4799,86.3099 25.8999,87.1399 C28.9699,87.3399 32.2299,87.4399 35.5799,87.4399 C38.9299,87.4399 42.1899,87.3399 45.2599,87.1399 C45.8199,87.0999 46.3799,87.0699 46.9299,87.0199 C58.9899,86.1099 68.1399,83.8099 70.3899,80.9699 Z" id="Stroke-6"></path>
                    <path d="M70.3899,65.8898 L70.3899,80.9698 C68.1399,83.8098 58.9899,86.1098 46.9299,87.0198 C46.3799,87.0698 45.8199,87.0998 45.2599,87.1398 C42.1899,87.3398 38.9299,87.4398 35.5799,87.4398 C32.2299,87.4398 28.9699,87.3398 25.8999,87.1398 C12.4799,86.3098 2.3299,83.7598 0.4999,80.6198 L0.4999,65.5398 C2.3299,68.6798 12.5499,71.2398 26.0399,72.0798 L26.1099,72.0798 L26.1499,72.0798 C29.1499,72.2498 32.3199,72.3598 35.5799,72.3598 C38.8399,72.3598 42.0099,72.2498 45.0099,72.0798 L45.0499,72.0798 L45.1199,72.0798 C52.7399,71.5998 59.3299,70.5698 63.9399,69.1998 C67.1609,68.2398 69.4199,67.1198 70.3899,65.8898 Z" id="Stroke-8"></path>
                    <path d="M70.3899,50.8102 L70.3899,65.8902 C69.4199,67.1202 67.1609,68.2402 63.9399,69.2002 C59.3299,70.5702 52.7399,71.6002 45.1199,72.0802 L45.0499,72.0802 L45.0099,72.0802 C42.0099,72.2502 38.8399,72.3602 35.5799,72.3602 C32.3199,72.3602 29.1499,72.2502 26.1499,72.0802 L26.1099,72.0802 L26.0399,72.0802 C12.5499,71.2402 2.3299,68.6802 0.4999,65.5402 L0.4999,50.4602 C2.3299,53.6002 12.5499,56.1602 26.0399,57.0002 L26.1099,57.0002 L26.1499,57.0002 C29.1499,57.1702 32.3199,57.2802 35.5799,57.2802 C38.8399,57.2802 42.0099,57.1702 45.0099,57.0002 L45.0499,57.0002 L45.1199,57.0002 C58.0699,56.1802 68.0199,53.7902 70.3899,50.8102 Z" id="Stroke-10"></path>
                    <path d="M70.3899,35.7502 L70.3899,50.8102 C68.0199,53.7902 58.0699,56.1802 45.1199,57.0002 L45.0499,57.0002 L45.0099,57.0002 C42.0099,57.1702 38.8399,57.2802 35.5799,57.2802 C32.3199,57.2802 29.1499,57.1702 26.1499,57.0002 L26.1099,57.0002 L26.0399,57.0002 C12.5499,56.1602 2.3299,53.6002 0.4999,50.4602 L0.4999,35.4002 C2.3299,38.5402 12.5499,41.1002 26.0399,41.9402 L26.1099,41.9402 L26.1499,41.9402 C29.1499,42.1102 32.3199,42.2202 35.5799,42.2202 C38.8399,42.2202 42.0099,42.1102 45.0099,41.9402 L45.0499,41.9402 L45.1199,41.9402 C58.0699,41.1202 68.0199,38.7302 70.3899,35.7502 Z" id="Stroke-12" stroke-linejoin="round"></path>
                    <path d="M73.7102,15.3698 L73.2102,18.0398 C70.3302,20.5398 60.1092,21.0498 47.2202,19.4698 L47.1492,19.4598 C47.1402,19.4598 47.1402,19.4598 47.1202,19.4498 C44.1402,19.0698 41.0002,18.5898 37.8002,17.9898 C34.5902,17.3898 31.4892,16.7098 28.5802,15.9798 L28.5402,15.9798 L28.4802,15.9598 C15.3702,12.6598 5.8002,8.2598 4.5692,4.8398 L4.9502,2.8498 C7.8702,-0.5202 22.9892,-0.7102 40.6802,2.5998 C57.8002,5.8098 71.5102,11.2198 73.7102,15.3698 Z" id="Stroke-14"></path>
                    <path d="M73.2102,18.0402 L70.4392,32.8502 C70.3992,32.8902 70.3502,32.9202 70.3102,32.9502 C67.2602,35.3502 57.1402,35.8402 44.4502,34.2802 L44.3802,34.2702 C44.3592,34.2602 44.3592,34.2602 44.3502,34.2602 C41.3702,33.8802 38.2302,33.4002 35.0292,32.8002 C31.8192,32.2002 28.7202,31.5102 25.8102,30.7902 C25.7902,30.7902 25.7902,30.7902 25.7702,30.7802 L25.7002,30.7702 C22.1492,29.8702 18.8592,28.9002 15.9302,27.8802 C8.0202,25.1502 2.6892,22.1302 1.8002,19.6402 L4.5692,4.8402 C5.8002,8.2602 15.3702,12.6602 28.4802,15.9602 L28.5402,15.9802 L28.5802,15.9802 C31.4892,16.7102 34.5902,17.3902 37.8002,17.9902 C41.0002,18.5902 44.1402,19.0702 47.1202,19.4502 C47.1402,19.4602 47.1402,19.4602 47.1492,19.4602 L47.2202,19.4702 C60.1092,21.0502 70.3302,20.5402 73.2102,18.0402 Z" id="Stroke-16" stroke-linejoin="round"></path>
                </g>
            </g>
        </g>
    </g>
</svg>