<?xml version="1.0" encoding="UTF-8"?>
<svg width="145px" height="47px" viewBox="0 0 145 47" version="1.1" xmlns="http://www.w3.org/2000/svg" xmlns:xlink="http://www.w3.org/1999/xlink">
    <!-- Generator: Sketch 64 (93537) - https://sketch.com -->
    <title>Group 13</title>
    <desc>Created with Sketch.</desc>
    <g id="Symbols" stroke="none" stroke-width="1" fill="none" fill-rule="evenodd">
        <g id="Blok/Newsletter" transform="translate(-1296.000000, -160.000000)">
            <g id="Group-13" transform="translate(1368.500000, 183.500000) scale(-1, 1) translate(-1368.500000, -183.500000) translate(1297.000000, 161.000000)">
                <path d="M0,23.1097904 C0.58303267,23.9123826 1.40736672,23.9744352 2.31056184,23.9737533 C19.5932679,23.9594335 113.30111,23.9580697 130.58449,23.9662524 C135.394341,23.9682981 139.026668,26.9072722 139.861786,31.4207454 C140.735324,36.1408332 137.794548,40.6713538 133.112762,41.8176219 C128.628465,42.9147934 123.840857,40.0971969 122.5656,35.568722 C122.353956,34.8152264 122.30273,34.0105884 122.219824,33.2250436 C122.112654,32.2158367 121.704868,31.5032549 120.590703,31.5912195 C119.529786,31.6750928 119.288484,32.4360893 119.295899,33.3784703 C119.345103,39.7807969 124.917951,45.1827813 131.291543,44.9952598 C137.493258,44.8131934 142.26469,40.2840366 142.940738,33.9389893 C143.537251,28.3351636 139.567911,22.815893 133.858909,21.4030034 C132.811472,21.1438827 131.703373,21.029324 130.622909,21.0279603 C113.340203,21.0054577 19.6323614,21.016368 2.34965536,21 C1.37770957,20.9993206 0.539220967,21.1377456 0,22.0494413 L0,23.1097904 Z" id="Fill-1" fill="#EE7202"></path>
                <path d="M0,23.1097904 C0.58303267,23.9123826 1.40736672,23.9744352 2.31056184,23.9737533 C19.5932679,23.9594335 113.30111,23.9580697 130.58449,23.9662524 C135.394341,23.9682981 139.026668,26.9072722 139.861786,31.4207454 C140.735324,36.1408332 137.794548,40.6713538 133.112762,41.8176219 C128.628465,42.9147934 123.840857,40.0971969 122.5656,35.568722 C122.353956,34.8152264 122.30273,34.0105884 122.219824,33.2250436 C122.112654,32.2158367 121.704868,31.5032549 120.590703,31.5912195 C119.529786,31.6750928 119.288484,32.4360893 119.295899,33.3784703 C119.345103,39.7807969 124.917951,45.1827813 131.291543,44.9952598 C137.493258,44.8131934 142.26469,40.2840366 142.940738,33.9389893 C143.537251,28.3351636 139.567911,22.815893 133.858909,21.4030034 C132.811472,21.1438827 131.703373,21.029324 130.622909,21.0279603 C113.340203,21.0054577 19.6323614,21.016368 2.34965536,21 C1.37770957,20.9993206 0.539220967,21.1377456 0,22.0494413 L0,23.1097904 Z" id="Stroke-3" stroke="#FF6600" stroke-width="0.75"></path>
                <path d="M104.742118,16.9875537 C109.612118,16.9862189 114.482802,17.0235931 119.352118,16.9748732 C123.655569,16.9321598 127.391787,13.7900595 127.911864,9.88379078 C128.518735,5.32614357 125.948419,1.45724903 121.534255,0.285969071 C116.362187,-1.08753187 110.993296,2.65655962 110.641338,7.87759844 C110.572997,8.88937076 110.821076,9.79035534 111.981511,9.89513651 C113.130328,9.99925028 113.518506,9.25043199 113.619651,8.17125267 C113.929921,4.87164691 116.512538,2.74131891 119.82709,2.94754427 C122.809504,3.13374775 125.077067,5.59643895 125.035379,8.60572746 C124.993008,11.6804208 122.504018,14.0850485 119.189466,14.0970617 C109.625786,14.1304315 100.062791,14.1097422 90.4997946,14.1104096 C90.0576265,14.1104096 89.5389161,13.9802674 89.1903756,14.1597969 C88.7051525,14.4087356 88.0811965,14.8505517 88.0087548,15.2883635 C87.9342628,15.7361862 88.348411,16.3915691 88.7468406,16.7399498 C89.0454921,17.001569 89.6585134,16.9782101 90.1321185,16.9795449 C95.0021184,16.994895 99.8721183,16.9888885 104.742118,16.9875537" id="Fill-5" fill="#EE7202"></path>
                <path d="M104.742118,16.9875537 C109.612118,16.9862189 114.482802,17.0235931 119.352118,16.9748732 C123.655569,16.9321598 127.391787,13.7900595 127.911864,9.88379078 C128.518735,5.32614357 125.948419,1.45724903 121.534255,0.285969071 C116.362187,-1.08753187 110.993296,2.65655962 110.641338,7.87759844 C110.572997,8.88937076 110.821076,9.79035534 111.981511,9.89513651 C113.130328,9.99925028 113.518506,9.25043199 113.619651,8.17125267 C113.929921,4.87164691 116.512538,2.74131891 119.82709,2.94754427 C122.809504,3.13374775 125.077067,5.59643895 125.035379,8.60572746 C124.993008,11.6804208 122.504018,14.0850485 119.189466,14.0970617 C109.625786,14.1304315 100.062791,14.1097422 90.4997946,14.1104096 C90.0576265,14.1104096 89.5389161,13.9802674 89.1903756,14.1597969 C88.7051525,14.4087356 88.0811965,14.8505517 88.0087548,15.2883635 C87.9342628,15.7361862 88.348411,16.3915691 88.7468406,16.7399498 C89.0454921,17.001569 89.6585134,16.9782101 90.1321185,16.9795449 C95.0021184,16.994895 99.8721183,16.9888885 104.742118,16.9875537 Z" id="Stroke-7" stroke="#FF6600" stroke-width="0.75"></path>
                <path d="M95.7776604,26.0037913 C91.8482014,26.0037913 87.9194241,26.0004338 83.9899651,26.0058058 C82.6122002,26.0078203 81.9270673,26.5174871 82.0061473,27.5173473 C82.1015887,28.7186568 82.9496538,28.9086907 83.9804209,28.9066762 C91.7500331,28.8939177 99.520327,28.8858597 107.290621,28.9080192 C110.066602,28.9154056 112.365377,30.7566525 112.947569,33.3318464 C113.488177,35.7230499 112.241303,38.3143598 109.988886,39.4820944 C106.39688,41.3461722 102.072703,39.0180895 101.676621,34.9508275 C101.568909,33.8441992 101.272358,32.9772956 100.026166,33.0995082 C98.7752023,33.2230638 98.6313584,34.2289674 98.7145288,35.268446 C99.0431199,39.3719688 102.701253,42.8610712 106.824321,42.9946992 C111.470273,43.1457862 115.378598,40.050853 115.925341,35.7888567 C116.493218,31.3623435 113.769729,27.293067 109.520541,26.2831344 C108.757692,26.10183 107.953257,26.0212503 107.16791,26.0158783 C103.371388,25.9896899 99.5741832,26.0037913 95.7776604,26.0037913" id="Fill-9" fill="#EE7202"></path>
                <path d="M95.7776604,26.0037913 C91.8482014,26.0037913 87.9194241,26.0004338 83.9899651,26.0058058 C82.6122002,26.0078203 81.9270673,26.5174871 82.0061473,27.5173473 C82.1015887,28.7186568 82.9496538,28.9086907 83.9804209,28.9066762 C91.7500331,28.8939177 99.520327,28.8858597 107.290621,28.9080192 C110.066602,28.9154056 112.365377,30.7566525 112.947569,33.3318464 C113.488177,35.7230499 112.241303,38.3143598 109.988886,39.4820944 C106.39688,41.3461722 102.072703,39.0180895 101.676621,34.9508275 C101.568909,33.8441992 101.272358,32.9772956 100.026166,33.0995082 C98.7752023,33.2230638 98.6313584,34.2289674 98.7145288,35.268446 C99.0431199,39.3719688 102.701253,42.8610712 106.824321,42.9946992 C111.470273,43.1457862 115.378598,40.050853 115.925341,35.7888567 C116.493218,31.3623435 113.769729,27.293067 109.520541,26.2831344 C108.757692,26.10183 107.953257,26.0212503 107.16791,26.0158783 C103.371388,25.9896899 99.5741832,26.0037913 95.7776604,26.0037913 Z" id="Stroke-11" stroke="#FF6600" stroke-width="0.75"></path>
            </g>
        </g>
    </g>
</svg>