<?xml version="1.0" encoding="UTF-8"?>
<svg width="268px" height="27px" viewBox="0 0 268 27" version="1.1" xmlns="http://www.w3.org/2000/svg" xmlns:xlink="http://www.w3.org/1999/xlink">
    <!-- Generator: Sketch 64 (93537) - https://sketch.com -->
    <title>Group 6</title>
    <desc>Created with Sketch.</desc>
    <defs>
        <polygon id="path-1" points="0 0.311886207 264.784316 0.311886207 264.784316 20.3545759 0 20.3545759"></polygon>
    </defs>
    <g id="Symbols" stroke="none" stroke-width="1" fill="none" fill-rule="evenodd">
        <g id="Blok/Newsletter" transform="translate(0.000000, -167.000000)">
            <g id="Group-6" transform="translate(0.000000, 167.000000)">
                <g id="Group-3" transform="translate(0.000000, 1.000000)">
                    <mask id="mask-2" fill="white">
                        <use xlink:href="#path-1"></use>
                    </mask>
                    <g id="Clip-2"></g>
                    <path d="M208.623447,20.3545759 C200.400652,20.3545759 196.164195,15.6846103 192.425853,11.5642655 C188.710184,7.46926552 185.501842,3.93257586 178.825118,3.93257586 C172.147684,3.93257586 168.938634,7.46926552 165.222965,11.5642655 C161.484623,15.6846103 157.246749,20.3545759 149.023246,20.3545759 C140.799035,20.3545759 136.561869,15.6846103 132.822818,11.5642655 C129.10715,7.46926552 125.898099,3.93257586 119.220666,3.93257586 C112.542524,3.93257586 109.333473,7.46926552 105.617096,11.5642655 C101.878754,15.6846103 97.6408797,20.3545759 89.4166684,20.3545759 C81.1931658,20.3545759 76.9552914,15.6846103 73.2162406,11.5642655 C69.5005722,7.46926552 66.2915214,3.93257586 59.6140882,3.93257586 C52.935238,3.93257586 49.7254786,7.46926552 46.0091016,11.5642655 C42.2700508,15.6846103 38.0314679,20.3545759 29.8065481,20.3545759 C21.5823369,20.3545759 17.343754,15.6846103 13.6047032,11.5642655 C9.8883262,7.46926552 6.67856684,3.93257586 -0.00028342246,3.93257586 L-0.00028342246,0.311886207 C8.22463636,0.311886207 12.4632193,4.98185172 16.2022701,9.10219655 C19.9186471,13.1971966 23.1284064,16.7338862 29.8065481,16.7338862 C36.4853984,16.7338862 39.6951578,13.1971966 43.4115348,9.10219655 C47.1505856,4.98185172 51.3891684,0.311886207 59.6140882,0.311886207 C67.8375909,0.311886207 72.0754652,4.98185172 75.8138075,9.10219655 C79.5301845,13.1971966 82.7392353,16.7338862 89.4166684,16.7338862 C96.0948102,16.7338862 99.303861,13.1971966 103.019529,9.10219655 C106.75858,4.98185172 110.996455,0.311886207 119.220666,0.311886207 C127.444877,0.311886207 131.682043,4.98185172 135.420385,9.10219655 C139.136762,13.1971966 142.345813,16.7338862 149.023246,16.7338862 C155.700679,16.7338862 158.90973,13.1971966 162.625398,9.10219655 C166.363741,4.98185172 170.601615,0.311886207 178.825118,0.311886207 C187.047912,0.311886207 191.285078,4.98185172 195.02342,9.10219655 C198.73838,13.1971966 201.94743,16.7338862 208.623447,16.7338862 C215.30088,16.7338862 218.50993,13.1971966 222.225599,9.10219655 C225.96465,4.98185172 230.201816,0.311886207 238.425318,0.311886207 C246.649529,0.311886207 250.886695,4.98185172 254.625746,9.10219655 C257.544289,12.3188172 260.301281,15.3580241 264.784316,16.3696448 L264.019783,19.9056103 C258.456201,18.649231 255.18834,15.047369 252.027471,11.5642655 C248.311802,7.46926552 245.102751,3.93257586 238.425318,3.93257586 C231.747885,3.93257586 228.538834,7.46926552 224.823166,11.5642655 C221.084824,15.6846103 216.846949,20.3545759 208.623447,20.3545759" id="Fill-1" fill="#F06600" mask="url(#mask-2)"></path>
                </g>
                <polygon id="Fill-4" fill="#F06600" points="259.283469 0 256.082353 1.47682523 263.242912 17.5372996 247 23.6413674 248.218938 27 268 19.5614946"></polygon>
            </g>
        </g>
    </g>
</svg>